<?xml version="1.0" encoding="UTF-8"?>
<svg id="Capa_1" xmlns="http://www.w3.org/2000/svg" version="1.1" viewBox="0 0 800 800">
  <!-- Generator: Adobe Illustrator 29.5.1, SVG Export Plug-In . SVG Version: 2.1.0 Build 141)  -->
  <defs>
    <style>
      .st0 {
        fill: #96c8d1;
      }

      .st1 {
        fill: #ededed;
      }

      .st2 {
        fill: #211f1e;
      }
    </style>
  </defs>
  <path class="st0" d="M651.34,725.58c0,30.79-25,55.79-55.79,55.79H223.35c-30.79,0-55.79-25-55.79-55.79V74.42c0-30.79,25-55.79,55.79-55.79h372.1c30.79,0,55.79,25,55.79,55.79v651.16h.1Z"/>
  <path class="st1" d="M241.98,93.05h334.94v297.68H241.98V93.05Z"/>
  <path class="st2" d="M595.46,0H223.35c-41.08,0-74.42,33.34-74.42,74.42v651.16c0,41.08,33.44,74.42,74.42,74.42h372.1c41.08,0,74.42-33.44,74.42-74.42V74.42C669.88,33.34,636.54,0,595.46,0ZM632.71,725.58c0,20.49-16.67,37.26-37.26,37.26H223.35c-20.49,0-37.26-16.67-37.26-37.26V74.42c0-20.49,16.67-37.26,37.26-37.26h372.1c20.49,0,37.26,16.67,37.26,37.26v651.16Z"/>
  <path class="st2" d="M576.92,74.42H241.98c-10.3,0-18.63,8.33-18.63,18.63v297.68c0,10.3,8.33,18.63,18.63,18.63h334.94c10.3,0,18.63-8.33,18.63-18.63V93.05c-.1-10.3-8.43-18.63-18.63-18.63ZM558.29,372.1h-297.68V111.68h297.68v260.42ZM367.58,511.73c0-10.3-8.33-18.63-18.63-18.63h-27.94v-27.94c0-10.3-8.33-18.63-18.63-18.63s-18.63,8.33-18.63,18.63v27.94h-27.94c-10.3,0-18.63,8.33-18.63,18.63s8.33,18.63,18.63,18.63h27.94v27.94c0,10.3,8.33,18.63,18.63,18.63s18.63-8.33,18.63-18.63v-27.94h27.94c10.3,0,18.63-8.33,18.63-18.63ZM497.21,529.77c-12.84,0-23.24,10.39-23.24,23.24s10.39,23.24,23.24,23.24,23.24-10.39,23.24-23.24-10.39-23.24-23.24-23.24ZM550.06,464.66c-12.84,0-23.24,10.39-23.24,23.24s10.39,23.24,23.24,23.24,23.24-10.39,23.24-23.24c.1-12.84-10.39-23.24-23.24-23.24ZM406.71,654.88c-3.63-3.63-9.51-3.63-13.14,0l-37.26,37.26c-3.63,3.63-3.63,9.51,0,13.14,1.86,1.86,4.22,2.75,6.57,2.75s4.8-.88,6.57-2.75l37.26-37.26c3.63-3.63,3.63-9.51,0-13.14ZM449.36,654.88l-37.26,37.26c-3.63,3.63-3.63,9.51,0,13.14,1.86,1.86,4.22,2.75,6.57,2.75s4.8-.88,6.57-2.75l37.26-37.26c3.58-3.67,3.51-9.56-.17-13.14-3.61-3.52-9.36-3.52-12.97,0Z"/>
</svg>